<svg width="514" height="412" xmlns="http://www.w3.org/2000/svg" xmlns:xlink="http://www.w3.org/1999/xlink" overflow="hidden"><defs><clipPath id="clip0"><rect x="37" y="61" width="514" height="412"/></clipPath></defs><g clip-path="url(#clip0)" transform="translate(-37 -61)"><rect x="79.5001" y="166.5" width="471" height="96" stroke="#404040" stroke-width="1.33333" stroke-miterlimit="8" fill="#D6DCE5"/><rect x="79.5001" y="65.5001" width="471" height="96" stroke="#404040" stroke-width="1.33333" stroke-miterlimit="8" fill="#D6DCE5"/><rect x="79.5001" y="268.5" width="471" height="95" stroke="#404040" stroke-width="1.33333" stroke-miterlimit="8" fill="#D6DCE5"/><rect x="79.5001" y="369.5" width="471" height="96" stroke="#404040" stroke-width="1.33333" stroke-miterlimit="8" fill="#D6DCE5"/><text fill="#404040" font-family="Calibri,Calibri_MSFontService,sans-serif" font-weight="400" font-size="21" transform="translate(98.5011 94)">Generation and <tspan font-size="21" x="25.18" y="26">Signing of </tspan><tspan font-size="21" x="13.56" y="51">Transactions</tspan><tspan font-size="21" x="5.54325" y="102">Validation and </tspan><tspan font-size="21" x="4.88325" y="128">Distribution of </tspan><tspan font-size="21" x="13.5632" y="153">Transactions</tspan><tspan font-size="21" x="10.4065" y="203">Ordering and </tspan><tspan font-size="21" x="-4.16022" y="229">Encapsulation of </tspan><tspan font-size="21" x="13.5598" y="254">Transactions</tspan><tspan font-size="21" x="15.6463" y="317">Global View</tspan><tspan font-size="21" x="14.8464" y="343">of the Chain</tspan><tspan font-weight="700" font-size="21" x="225.284" y="56">Transaction Layer</tspan><tspan font-weight="700" font-size="21" x="231.375" y="157">Validation Layer</tspan><tspan font-weight="700" font-size="21" x="199.948" y="259">Block Generation Layer</tspan><tspan font-weight="700" font-size="21" x="223.081" y="360">Distribution Layer</tspan></text><rect x="406.5" y="84.5001" width="132" height="39" stroke="#404040" stroke-width="1.33333" stroke-miterlimit="8" fill="#DBEEF2"/><text fill="#404040" font-family="Calibri,Calibri_MSFontService,sans-serif" font-weight="400" font-size="21" transform="translate(431.137 111)">Contracts</text><rect x="401.5" y="79.5001" width="132" height="40" stroke="#404040" stroke-width="1.33333" stroke-miterlimit="8" fill="#DBEEF2"/><text fill="#404040" font-family="Calibri,Calibri_MSFontService,sans-serif" font-weight="400" font-size="21" transform="translate(426.183 106)">Contracts</text><rect x="396.5" y="75.5001" width="133" height="40" stroke="#404040" stroke-width="1.33333" stroke-miterlimit="8" fill="#DBEEF2"/><text fill="#404040" font-family="Calibri,Calibri_MSFontService,sans-serif" font-weight="400" font-size="21" transform="translate(421.228 102)">Contracts</text><rect x="262.5" y="84.5001" width="132" height="39" stroke="#404040" stroke-width="1.33333" stroke-miterlimit="8" fill="#DBEEF2"/><text fill="#404040" font-family="Calibri,Calibri_MSFontService,sans-serif" font-weight="400" font-size="21" transform="translate(286.555 111)">Contracts</text><rect x="257.5" y="79.5001" width="132" height="40" stroke="#404040" stroke-width="1.33333" stroke-miterlimit="8" fill="#DBEEF2"/><text fill="#404040" font-family="Calibri,Calibri_MSFontService,sans-serif" font-weight="400" font-size="21" transform="translate(281.6 106)">Contracts</text><rect x="252.5" y="75.5001" width="132" height="40" stroke="#404040" stroke-width="1.33333" stroke-miterlimit="8" fill="#DBEEF3"/><text fill="#404040" font-family="Calibri,Calibri_MSFontService,sans-serif" font-weight="400" font-size="21" transform="translate(264.039 102)">Transactions</text><rect x="263.5" y="185.5" width="275" height="40" stroke="#404040" stroke-width="1.33333" stroke-miterlimit="8" fill="#FDECDC"/><text fill="#404040" font-family="Calibri,Calibri_MSFontService,sans-serif" font-weight="400" font-size="21" transform="translate(359.229 212)">Contracts</text><rect x="258.5" y="181.5" width="275" height="39" stroke="#404040" stroke-width="1.33333" stroke-miterlimit="8" fill="#FDECDC"/><text fill="#404040" font-family="Calibri,Calibri_MSFontService,sans-serif" font-weight="400" font-size="21" transform="translate(354.275 208)">Contracts</text><rect x="253.5" y="176.5" width="276" height="40" stroke="#404040" stroke-width="1.33333" stroke-miterlimit="8" fill="#FDECDC"/><text fill="#404040" font-family="Calibri,Calibri_MSFontService,sans-serif" font-weight="400" font-size="21" transform="translate(321.61 204)">Validation Rules</text><rect x="258.5" y="285.5" width="275" height="40" stroke="#404040" stroke-width="1.33333" stroke-miterlimit="8" fill="#D5E3BF"/><text fill="#404040" font-family="Calibri,Calibri_MSFontService,sans-serif" font-weight="400" font-size="21" transform="translate(304.195 312)">Consensus Algorithm</text><rect x="263.5" y="392.5" width="275" height="40" stroke="#404040" stroke-width="1.33333" stroke-miterlimit="8" fill="#FFFFCD"/><text fill="#FFFFFF" font-family="Calibri,Calibri_MSFontService,sans-serif" font-weight="400" font-size="21" transform="translate(359.229 419)">Contracts</text><rect x="258.5" y="388.5" width="275" height="39" stroke="#404040" stroke-width="1.33333" stroke-miterlimit="8" fill="#FFFFCD"/><text fill="#FFFFFF" font-family="Calibri,Calibri_MSFontService,sans-serif" font-weight="400" font-size="21" transform="translate(354.275 415)">Contracts</text><rect x="253.5" y="383.5" width="276" height="40" stroke="#404040" stroke-width="1.33333" stroke-miterlimit="8" fill="#FFFFCD"/><text fill="#404040" font-family="Calibri,Calibri_MSFontService,sans-serif" font-weight="400" font-size="21" transform="translate(332.85 411)">Mined Blocks</text><rect x="42.5001" y="268.5" width="32" height="95" stroke="#404040" stroke-width="1.33333" stroke-miterlimit="8" fill="#D6DCE5"/><text fill="#404040" font-family="Wingdings,Wingdings_MSFontService,sans-serif" font-weight="400" font-size="21" transform="matrix(6.12323e-17 -1 1 6.12323e-17 65.1682 352)"><tspan font-size="21" x="26" y="-1.59204e-15"></tspan><tspan font-size="21" x="52" y="-3.18408e-15"></tspan></text><rect x="42.5001" y="167.5" width="32" height="95" stroke="#404040" stroke-width="1.33333" stroke-miterlimit="8" fill="#D6DCE5"/><text fill="#404040" font-family="Wingdings,Wingdings_MSFontService,sans-serif" font-weight="400" font-size="21" transform="matrix(6.12323e-17 -1 1 6.12323e-17 65.1681 250)"><tspan font-size="21" x="25" y="-1.53081e-15"></tspan><tspan font-size="21" x="51" y="-3.12285e-15"></tspan></text><rect x="41.5001" y="65.5001" width="33" height="96" stroke="#404040" stroke-width="1.33333" stroke-miterlimit="8" fill="#D6DCE5"/><text fill="#404040" font-family="Wingdings,Wingdings_MSFontService,sans-serif" font-weight="400" font-size="21" transform="matrix(6.12323e-17 -1 1 6.12323e-17 64.9542 151)"><tspan font-family="Calibri,Calibri_MSFontService,sans-serif" font-size="21" x="30" y="-1.83697e-15">Input</tspan></text><rect x="42.5001" y="369.5" width="32" height="96" stroke="#404040" stroke-width="1.33333" stroke-miterlimit="8" fill="#D6DCE5"/><text fill="#404040" font-family="Calibri,Calibri_MSFontService,sans-serif" font-weight="400" font-size="21" transform="matrix(6.12323e-17 -1 1 6.12323e-17 65.0849 458)">Saved  <tspan font-family="Wingdings,Wingdings_MSFontService,sans-serif" font-size="21" x="61" y="-3.73517e-15"></tspan></text></g></svg>